<svg xmlns="http://www.w3.org/2000/svg" viewBox="0 0 200 200">
  <circle cx="100" cy="100" r="95" fill="#D6E6F4"/>
  <!-- Decorative Dots -->
  <circle cx="40" cy="60" r="5" fill="#FFFFFF"/>
  <circle cx="170" cy="110" r="7" fill="#FFFFFF"/>
  <circle cx="140" cy="40" r="4" fill="#3D82C4"/>
  <circle cx="30" cy="140" r="6" fill="#3D82C4"/>

  <!-- Back Hair -->
  <path d="M45 150 C30 90 60 40 100 40 C140 40 170 90 155 150" fill="#18244A"/>
  
  <!-- Shirt -->
  <path d="M35 190 C35 130 70 110 100 110 C130 110 165 130 165 190 Z" fill="#3877C6"/>

  <!-- Neck -->
  <rect x="85" y="90" width="30" height="35" fill="#F6D5C5"/>

  <!-- Face -->
  <ellipse cx="100" cy="75" rx="32" ry="42" fill="#F6D5C5"/>

  <!-- Front Hair -->
  <path d="M68 75 Q100 25 132 75 Q115 45 68 75" fill="#18244A"/>
  <path d="M68 65 C68 65 95 30 132 65 C132 65 135 120 145 150 C145 150 125 150 120 90 C120 90 100 50 60 150 C60 150 45 150 55 90 C55 90 55 65 68 65" fill="#18244A"/>

  <!-- Laptop -->
  <path d="M50 140 L150 140 L140 190 L60 190 Z" fill="#A4BCD4"/>
  <circle cx="100" cy="165" r="10" fill="#D6E6F4"/>
</svg>
